<svg xmlns="http://www.w3.org/2000/svg" width="375" viewBox="0 0 375 375" height="375" version="1.0"><path fill="#00C4CC" d="M 187.519531 375.003906 C 84.121094 375.003906 0 290.894531 0 187.515625 C 0 84.117188 84.121094 0 187.519531 0 C 290.910156 0 375.011719 84.117188 375.011719 187.515625 C 375.015625 290.894531 290.910156 375.003906 187.519531 375.003906 Z M 187.519531 18.566406 C 94.359375 18.566406 18.566406 94.355469 18.566406 187.515625 C 18.566406 280.65625 94.359375 356.441406 187.519531 356.441406 C 280.667969 356.441406 356.453125 280.65625 356.453125 187.515625 C 356.453125 94.355469 280.667969 18.566406 187.519531 18.566406 Z M 187.519531 18.566406"/><path fill="#00C4CC" d="M 259.722656 76.789062 C 216.21875 123.515625 172.714844 170.238281 129.21875 216.964844 C 133.320312 216.964844 137.421875 216.964844 141.523438 216.964844 C 128.886719 204.898438 116.246094 192.832031 103.605469 180.765625 C 100.320312 177.628906 94.515625 177.175781 91.300781 180.765625 C 81.738281 191.433594 72.179688 202.105469 62.617188 212.773438 C 59.511719 216.242188 59.046875 221.675781 62.617188 225.078125 C 85.402344 246.824219 108.183594 268.570312 130.964844 290.316406 C 134.300781 293.503906 139.988281 293.847656 143.273438 290.316406 C 196.347656 233.3125 249.421875 176.304688 302.496094 119.296875 C 305.710938 115.839844 305.949219 110.417969 302.496094 106.988281 C 292.339844 96.921875 282.183594 86.855469 272.03125 76.789062 C 264.050781 68.882812 251.746094 81.183594 259.722656 89.09375 C 269.875 99.164062 280.035156 109.230469 290.1875 119.296875 C 290.1875 115.191406 290.1875 111.089844 290.1875 106.988281 C 237.113281 163.992188 184.039062 221.003906 130.96875 278.011719 C 135.070312 278.011719 139.171875 278.011719 143.273438 278.011719 C 120.492188 256.265625 97.707031 234.519531 74.925781 212.773438 C 74.925781 216.875 74.925781 220.976562 74.925781 225.078125 C 84.488281 214.410156 94.046875 203.738281 103.605469 193.070312 C 99.503906 193.070312 95.402344 193.070312 91.300781 193.070312 C 103.9375 205.140625 116.578125 217.203125 129.21875 229.269531 C 132.550781 232.457031 138.234375 232.800781 141.523438 229.269531 C 185.027344 182.546875 228.523438 135.820312 272.03125 89.09375 C 279.667969 80.894531 267.382812 68.554688 259.722656 76.789062 Z M 259.722656 76.789062"/></svg>